<?xml version="1.0" encoding="UTF-8"?>
<!DOCTYPE svg PUBLIC "-//W3C//DTD SVG 1.1//EN" "http://www.w3.org/Graphics/SVG/1.1/DTD/svg11.dtd">
<svg xmlns="http://www.w3.org/2000/svg" version="1.1" width="552px" height="452px" style="shape-rendering:geometricPrecision; text-rendering:geometricPrecision; image-rendering:optimizeQuality; fill-rule:evenodd; clip-rule:evenodd" xmlns:xlink="http://www.w3.org/1999/xlink">
<g><path style="opacity:0.761" fill="#fbfbfb" d="M 283.5,18.5 C 284.496,18.4142 285.329,18.7476 286,19.5C 290.277,29.7222 294.277,40.0555 298,50.5C 303.138,72.0535 307.805,93.7202 312,115.5C 314.784,130.861 320.118,145.194 328,158.5C 336.87,168.826 347.703,171.326 360.5,166C 377.931,158.451 394.931,150.118 411.5,141C 412.059,140.275 412.392,139.442 412.5,138.5C 411.53,135.226 410.03,132.226 408,129.5C 385.357,100.879 363.691,71.5454 343,41.5C 342.409,40.5165 342.743,39.8499 344,39.5C 397.33,72.6823 450.497,106.016 503.5,139.5C 503.833,140.333 504.167,141.167 504.5,142C 492.556,184.944 480.222,227.777 467.5,270.5C 466.998,271.521 466.332,271.688 465.5,271C 454.666,259.824 441.999,251.491 427.5,246C 409.94,244.226 397.94,251.559 391.5,268C 398.005,284.184 404.671,300.35 411.5,316.5C 396.809,328.679 381.642,340.346 366,351.5C 362.821,361.216 359.487,370.882 356,380.5C 334.333,400.167 312.667,419.833 291,439.5C 293.177,426.461 295.511,413.461 298,400.5C 293.612,403.731 289.112,406.731 284.5,409.5C 279.888,406.731 275.388,403.731 271,400.5C 273.49,413.463 275.824,426.463 278,439.5C 256.333,419.833 234.667,400.167 213,380.5C 209.823,370.796 206.489,361.129 203,351.5C 188.026,340.693 173.192,329.693 158.5,318.5C 157.386,317.277 157.219,315.944 158,314.5C 164.704,299.282 171.204,283.949 177.5,268.5C 168.31,246.247 152.643,240.08 130.5,250C 120.739,256.592 111.406,263.759 102.5,271.5C 88.9154,228.506 76.2487,185.173 64.5,141.5C 67.7278,138.205 71.3944,135.372 75.5,133C 125.344,101.818 175.177,70.6511 225,39.5C 226.257,39.8499 226.591,40.5165 226,41.5C 205.491,71.6778 183.824,101.011 161,129.5C 158.97,132.226 157.47,135.226 156.5,138.5C 156.608,139.442 156.941,140.275 157.5,141C 174.1,150.134 191.1,158.467 208.5,166C 224.668,172.168 236.834,167.668 245,152.5C 250.385,140.629 254.385,128.296 257,115.5C 260.683,96.1024 264.683,76.7691 269,57.5C 272.731,44.0474 277.564,31.0474 283.5,18.5 Z M 281.5,49.5 C 282.665,102.332 282.832,155.332 282,208.5C 278.466,204.631 274.633,201.131 270.5,198C 258.329,190.747 245.996,183.747 233.5,177C 238.613,174.694 243.113,171.528 247,167.5C 256.433,153.885 262.766,138.885 266,122.5C 270.593,98.0318 275.76,73.6985 281.5,49.5 Z M 286.5,50.5 C 287.933,53.2823 289.1,56.2823 290,59.5C 294.893,83.1931 299.893,106.86 305,130.5C 308.611,146.224 315.778,160.057 326.5,172C 329.339,173.92 332.339,175.587 335.5,177C 323.004,183.747 310.671,190.747 298.5,198C 294.367,201.131 290.534,204.631 287,208.5C 286.5,155.834 286.333,103.168 286.5,50.5 Z M 190.5,75.5 C 176.832,93.3401 163.332,111.34 150,129.5C 146.967,134.106 145.967,139.106 147,144.5C 152.747,148.959 158.914,152.793 165.5,156C 195.986,170.41 226.32,185.077 256.5,200C 269.089,206.756 278.423,216.589 284.5,229.5C 290.552,216.614 299.885,206.78 312.5,200C 343.347,184.744 374.347,169.744 405.5,155C 411.423,152.124 416.923,148.624 422,144.5C 422.946,138.329 421.612,132.662 418,127.5C 404.617,110.29 391.451,92.9568 378.5,75.5C 399.349,92.8418 419.182,111.509 438,131.5C 441.882,135.714 445.382,140.214 448.5,145C 441.543,155.624 432.876,164.624 422.5,172C 382.239,190.131 342.239,208.798 302.5,228C 299.577,237.276 297.41,246.776 296,256.5C 292.25,258.959 288.417,261.292 284.5,263.5C 280.583,261.292 276.75,258.959 273,256.5C 271.592,246.788 269.425,237.288 266.5,228C 226.287,208.727 185.954,189.727 145.5,171C 135.456,163.957 127.123,155.29 120.5,145C 141.726,119.607 165.059,96.4403 190.5,75.5 Z M 182.5,77.5 C 165.692,92.1353 148.692,106.635 131.5,121C 123.498,128.496 116.831,136.996 111.5,146.5C 122.311,160.482 135.145,172.149 150,181.5C 156.675,201.356 162.841,221.356 168.5,241.5C 163.728,239.117 158.728,237.284 153.5,236C 142.306,235.173 131.973,237.84 122.5,244C 117.333,247.833 112.167,251.667 107,255.5C 96.2677,219.071 85.7677,182.571 75.5,146C 76.7945,143.372 78.7945,141.372 81.5,140C 115.223,119.145 148.889,98.3113 182.5,77.5 Z M 386.5,77.5 C 422.612,99.7279 458.612,122.228 494.5,145C 483.473,181.752 472.639,218.585 462,255.5C 451.875,246.018 440.042,239.518 426.5,236C 422.5,235.333 418.5,235.333 414.5,236C 409.7,237.569 405.034,239.403 400.5,241.5C 405.984,221.878 411.984,202.378 418.5,183C 423.956,178.433 429.622,174.1 435.5,170C 443.864,162.847 451.198,154.847 457.5,146C 451.987,136.812 445.32,128.479 437.5,121C 420.308,106.635 403.308,92.1353 386.5,77.5 Z M 162.5,190.5 C 162.56,189.957 162.893,189.624 163.5,189.5C 195.288,204.227 226.954,219.227 258.5,234.5C 260.976,243.74 263.143,253.074 265,262.5C 271.416,266.625 277.916,270.625 284.5,274.5C 290.868,270.302 297.368,266.302 304,262.5C 305.852,253.073 308.018,243.739 310.5,234.5C 342.284,218.769 374.284,203.936 406.5,190C 387.015,251.79 367.515,313.624 348,375.5C 334,388.167 320,400.833 306,413.5C 316.973,364.6 327.806,315.6 338.5,266.5C 337.448,266.351 336.448,266.517 335.5,267C 318.793,277.685 301.793,287.852 284.5,297.5C 267.207,287.852 250.207,277.685 233.5,267C 232.552,266.517 231.552,266.351 230.5,266.5C 241.28,315.57 252.113,364.57 263,413.5C 249.017,401.018 235.183,388.351 221.5,375.5C 201.354,313.895 181.688,252.228 162.5,190.5 Z M 237.5,275.5 C 252.139,284.489 266.805,293.489 281.5,302.5C 282.667,333.161 282.833,363.828 282,394.5C 274.716,389.55 267.716,384.217 261,378.5C 253.003,344.182 245.17,309.849 237.5,275.5 Z M 330.5,275.5 C 323.87,309.724 316.37,344.057 308,378.5C 301.284,384.217 294.284,389.55 287,394.5C 286.167,363.828 286.333,333.161 287.5,302.5C 302.066,293.725 316.399,284.725 330.5,275.5 Z M 181.5,282.5 C 187.31,300.363 192.81,318.363 198,336.5C 187.856,329.184 178.023,321.518 168.5,313.5C 173.122,303.26 177.455,292.927 181.5,282.5 Z M 370.5,336.5 C 376.265,318.621 381.765,300.621 387,282.5C 391.5,292.833 396,303.167 400.5,313.5C 390.869,321.649 380.869,329.315 370.5,336.5 Z"/></g>
<g><path style="opacity:0.912" fill="#f8f9f8" d="M 154.5,103.5 C 155.251,102.427 156.251,102.26 157.5,103C 156.648,104.728 155.648,104.895 154.5,103.5 Z"/></g>
<g><path style="opacity:0.996" fill="#f9f9f9" d="M 146.5,109.5 C 148.76,110.238 148.927,111.238 147,112.5C 145.272,111.648 145.105,110.648 146.5,109.5 Z"/></g>
<g><path style="opacity:0.969" fill="#f8f9f8" d="M 413.5,176.5 C 416.001,176.511 416.168,177.178 414,178.5C 413.536,177.906 413.369,177.239 413.5,176.5 Z"/></g>
<g><path style="opacity:0.949" fill="#f8f9f8" d="M 394.5,326.5 C 397.001,326.511 397.168,327.178 395,328.5C 394.536,327.906 394.369,327.239 394.5,326.5 Z"/></g>
<g><path style="opacity:0.982" fill="#f8f9f8" d="M 249.5,341.5 C 250.289,341.783 250.956,342.283 251.5,343C 250.184,343.528 249.517,343.028 249.5,341.5 Z"/></g>
</svg>
